<svg width="16" height="17" viewBox="0 0 16 17" fill="none" xmlns="http://www.w3.org/2000/svg">
<g clip-path="url(#clip0_664_6933)">
<path d="M12 0.138672H4.00015C1.8004 0.138672 0.000244141 1.93882 0.000244141 4.13857V12.1388C0.000244141 14.3379 1.8004 16.1387 4.00015 16.1387H12C14.1997 16.1387 15.9999 14.3379 15.9999 12.1388V4.13857C15.9999 1.93882 14.1997 0.138672 12 0.138672ZM14.6665 12.1388C14.6665 13.6087 13.4707 14.8053 12 14.8053H4.00015C2.52999 14.8053 1.33361 13.6087 1.33361 12.1388V4.13857C1.33361 2.66822 2.52999 1.47204 4.00015 1.47204H12C13.4707 1.47204 14.6665 2.66822 14.6665 4.13857V12.1388Z" fill="white"/>
<path d="M12.334 4.80562C12.8862 4.80562 13.3339 4.35791 13.3339 3.80564C13.3339 3.25337 12.8862 2.80566 12.334 2.80566C11.7817 2.80566 11.334 3.25337 11.334 3.80564C11.334 4.35791 11.7817 4.80562 12.334 4.80562Z" fill="white"/>
<path d="M7.9999 4.13867C5.79035 4.13867 4 5.92921 4 8.13857C4 10.3471 5.79035 12.1389 7.9999 12.1389C10.2088 12.1389 11.9998 10.3471 11.9998 8.13857C11.9998 5.92921 10.2088 4.13867 7.9999 4.13867ZM7.9999 10.8055C6.52732 10.8055 5.33337 9.61155 5.33337 8.13857C5.33337 6.6656 6.52732 5.47204 7.9999 5.47204C9.47248 5.47204 10.6664 6.6656 10.6664 8.13857C10.6664 9.61155 9.47248 10.8055 7.9999 10.8055Z" fill="white"/>
</g>
<defs>
<clipPath id="clip0_664_6933">
<rect width="16" height="16" fill="white" transform="translate(0 0.138672)"/>
</clipPath>
</defs>
</svg>
